<svg width="64" height="37" viewBox="0 0 64 37" fill="none" xmlns="http://www.w3.org/2000/svg">
<path d="M5.875 17.1641C4.78125 17.1641 3.81771 16.9401 2.98438 16.4922C2.15104 16.0391 1.5026 15.3932 1.03906 14.5547C0.575521 13.7161 0.34375 12.7109 0.34375 11.5391V11.0938C0.34375 9.99479 0.5625 9.02344 1 8.17969C1.4375 7.33073 2.0599 6.66667 2.86719 6.1875C3.67969 5.70312 4.64323 5.46094 5.75781 5.46094C6.53906 5.46094 7.27604 5.56771 7.96875 5.78125C8.66667 5.99479 9.29948 6.34115 9.86719 6.82031V9.65625H8.03125L7.78125 7.95312C7.60417 7.83333 7.41667 7.72917 7.21875 7.64062C7.02083 7.55208 6.80729 7.48438 6.57812 7.4375C6.34896 7.39062 6.10156 7.36719 5.83594 7.36719C5.22135 7.36719 4.6901 7.51562 4.24219 7.8125C3.79427 8.10938 3.44792 8.53385 3.20312 9.08594C2.95833 9.63802 2.83594 10.3021 2.83594 11.0781V11.5391C2.83594 12.2891 2.96094 12.9453 3.21094 13.5078C3.46615 14.0651 3.82552 14.4974 4.28906 14.8047C4.7526 15.112 5.29167 15.2656 5.90625 15.2656C6.22917 15.2656 6.55208 15.2318 6.875 15.1641C7.19792 15.0911 7.5 14.9974 7.78125 14.8828L8.03906 13.2812H9.875V16.0625C9.42708 16.3646 8.86198 16.625 8.17969 16.8438C7.5026 17.0573 6.73438 17.1641 5.875 17.1641ZM14.9531 17.1641C14.099 17.1641 13.3672 16.9844 12.7578 16.625C12.1536 16.2604 11.6901 15.7552 11.3672 15.1094C11.0495 14.4583 10.8906 13.7057 10.8906 12.8516V12.6953C10.8906 11.8516 11.0495 11.1068 11.3672 10.4609C11.6901 9.8151 12.1536 9.3099 12.7578 8.94531C13.362 8.57552 14.0885 8.39062 14.9375 8.39062C15.7865 8.39062 16.513 8.57292 17.1172 8.9375C17.7214 9.30208 18.1823 9.80729 18.5 10.4531C18.8229 11.099 18.9844 11.8464 18.9844 12.6953V12.8516C18.9844 13.7005 18.8229 14.4505 18.5 15.1016C18.1823 15.7474 17.7214 16.2526 17.1172 16.6172C16.5182 16.9818 15.7969 17.1641 14.9531 17.1641ZM14.9531 15.2578C15.3177 15.2578 15.612 15.1589 15.8359 14.9609C16.0651 14.763 16.2318 14.4844 16.3359 14.125C16.4453 13.7656 16.5 13.3411 16.5 12.8516V12.6953C16.5 12.2214 16.4453 11.8073 16.3359 11.4531C16.2318 11.0938 16.0651 10.8125 15.8359 10.6094C15.6068 10.4062 15.3073 10.3047 14.9375 10.3047C14.5729 10.3047 14.276 10.4062 14.0469 10.6094C13.8177 10.8125 13.651 11.0938 13.5469 11.4531C13.4427 11.8073 13.3906 12.2214 13.3906 12.6953V12.8516C13.3906 13.3411 13.4427 13.7682 13.5469 14.1328C13.651 14.4922 13.8177 14.7708 14.0469 14.9688C14.276 15.1615 14.5781 15.2578 14.9531 15.2578ZM19.8359 17V15.5234L20.8828 15.2812V10.2734L19.6875 10.0312V8.54688H23.2266L23.3281 9.74219C23.6094 9.3151 23.9557 8.98438 24.3672 8.75C24.7786 8.51042 25.2474 8.39062 25.7734 8.39062C26.5859 8.39062 27.2266 8.65885 27.6953 9.19531C28.1641 9.73177 28.3984 10.5781 28.3984 11.7344V15.2812L29.4375 15.5234V17H24.9922V15.5234L25.8906 15.2812V11.7344C25.8906 11.224 25.7865 10.862 25.5781 10.6484C25.375 10.4297 25.0781 10.3203 24.6875 10.3203C24.3958 10.3203 24.1406 10.3802 23.9219 10.5C23.7083 10.6146 23.5286 10.7812 23.3828 11V15.2812L24.1953 15.5234V17H19.8359ZM29.9766 17V15.5234L31.0234 15.2812V10.2734L29.8281 10.0312V8.54688H33.3672L33.4688 9.74219C33.75 9.3151 34.0964 8.98438 34.5078 8.75C34.9193 8.51042 35.388 8.39062 35.9141 8.39062C36.7266 8.39062 37.3672 8.65885 37.8359 9.19531C38.3047 9.73177 38.5391 10.5781 38.5391 11.7344V15.2812L39.5781 15.5234V17H35.1328V15.5234L36.0312 15.2812V11.7344C36.0312 11.224 35.9271 10.862 35.7188 10.6484C35.5156 10.4297 35.2188 10.3203 34.8281 10.3203C34.5365 10.3203 34.2812 10.3802 34.0625 10.5C33.849 10.6146 33.6693 10.7812 33.5234 11V15.2812L34.3359 15.5234V17H29.9766ZM44.2578 17.1641C43.4401 17.1641 42.7266 16.987 42.1172 16.6328C41.5078 16.2734 41.0339 15.7839 40.6953 15.1641C40.362 14.5391 40.1953 13.8307 40.1953 13.0391V12.7344C40.1953 11.8906 40.349 11.1406 40.6562 10.4844C40.9635 9.82812 41.4062 9.3151 41.9844 8.94531C42.5625 8.57031 43.2552 8.38542 44.0625 8.39062C44.8281 8.39062 45.474 8.53906 46 8.83594C46.526 9.13281 46.9245 9.56771 47.1953 10.1406C47.4714 10.7083 47.6094 11.401 47.6094 12.2188V13.5469H42.7891L42.7812 13.5938C42.8125 13.9167 42.901 14.2031 43.0469 14.4531C43.1979 14.6979 43.4036 14.8932 43.6641 15.0391C43.9297 15.1849 44.2526 15.2578 44.6328 15.2578C45.0234 15.2578 45.3932 15.2109 45.7422 15.1172C46.0964 15.0234 46.4531 14.8776 46.8125 14.6797L47.4375 16.2031C47.0729 16.4792 46.6198 16.7083 46.0781 16.8906C45.5417 17.0729 44.9349 17.1641 44.2578 17.1641ZM42.7969 11.9453H45.2969V11.7422C45.2969 11.4193 45.2578 11.1458 45.1797 10.9219C45.1068 10.6927 44.9818 10.5182 44.8047 10.3984C44.6328 10.2786 44.4036 10.2188 44.1172 10.2188C43.8255 10.2188 43.5859 10.2917 43.3984 10.4375C43.2109 10.5833 43.0677 10.7839 42.9688 11.0391C42.875 11.2943 42.8099 11.5833 42.7734 11.9062L42.7969 11.9453ZM52.5469 17.1641C51.724 17.1641 51.013 16.9818 50.4141 16.6172C49.8203 16.2474 49.362 15.7422 49.0391 15.1016C48.7214 14.4557 48.5625 13.7188 48.5625 12.8906V12.6797C48.5625 11.8411 48.7266 11.099 49.0547 10.4531C49.3828 9.80729 49.8438 9.30208 50.4375 8.9375C51.0312 8.57292 51.7292 8.39062 52.5312 8.39062C53.3125 8.39062 53.9844 8.51042 54.5469 8.75C55.1094 8.98958 55.5599 9.25521 55.8984 9.54688L55.8672 12.0859H53.9922L53.6797 10.5625C53.5755 10.4583 53.4375 10.3724 53.2656 10.3047C53.0938 10.237 52.9323 10.2031 52.7812 10.2031C52.375 10.2031 52.0443 10.2995 51.7891 10.4922C51.5391 10.6797 51.3542 10.9557 51.2344 11.3203C51.1198 11.6849 51.0625 12.138 51.0625 12.6797V12.8906C51.0625 13.4583 51.1328 13.9167 51.2734 14.2656C51.4141 14.6094 51.599 14.862 51.8281 15.0234C52.0625 15.1797 52.3099 15.2578 52.5703 15.2578C52.9401 15.2578 53.2292 15.1641 53.4375 14.9766C53.651 14.7839 53.8047 14.5104 53.8984 14.1562H56.0156L56.0469 14.2031C55.9375 14.8385 55.75 15.3776 55.4844 15.8203C55.224 16.2578 54.8568 16.5911 54.3828 16.8203C53.9089 17.0495 53.2969 17.1641 52.5469 17.1641ZM60.4531 17.1719C59.6198 17.1719 58.9818 16.9479 58.5391 16.5C58.0964 16.0469 57.875 15.3307 57.875 14.3516V10.2891H56.7656V8.54688H57.875V6.46875H60.3594V8.54688H61.8359V10.2891H60.3594V14.3438C60.3594 14.6458 60.4245 14.862 60.5547 14.9922C60.6901 15.1172 60.8724 15.1797 61.1016 15.1797C61.2161 15.1797 61.3333 15.1719 61.4531 15.1562C61.5729 15.1406 61.6823 15.125 61.7812 15.1094L61.9688 16.9453C61.7344 17.013 61.487 17.0677 61.2266 17.1094C60.9714 17.151 60.7135 17.1719 60.4531 17.1719Z" fill="white"/>
<path d="M40.67 35.82V35.52C41.08 35.5 41.43 35.39 41.72 35.19C42.02 34.99 42.245 34.65 42.395 34.17C42.545 33.69 42.62 33.035 42.62 32.205V23.97C42.62 23.6 42.59 23.33 42.53 23.16C42.48 22.98 42.37 22.86 42.2 22.8C42.03 22.73 41.785 22.69 41.465 22.68V22.38C41.695 22.39 42 22.4 42.38 22.41C42.77 22.42 43.175 22.425 43.595 22.425C44.015 22.425 44.425 22.42 44.825 22.41C45.235 22.4 45.57 22.39 45.83 22.38V22.68C45.5 22.69 45.25 22.73 45.08 22.8C44.92 22.86 44.81 22.98 44.75 23.16C44.7 23.33 44.675 23.6 44.675 23.97V29.46C44.675 29.87 44.67 30.315 44.66 30.795C44.66 31.275 44.64 31.74 44.6 32.19C44.57 32.64 44.51 33.035 44.42 33.375C44.23 34.075 43.82 34.655 43.19 35.115C42.56 35.585 41.72 35.82 40.67 35.82ZM50.1951 25.035C50.8851 25.035 51.4951 25.175 52.0251 25.455C52.5651 25.725 52.9901 26.16 53.3001 26.76C53.6201 27.36 53.7801 28.15 53.7801 29.13C53.7801 30.11 53.6201 30.9 53.3001 31.5C52.9901 32.1 52.5651 32.535 52.0251 32.805C51.4951 33.075 50.8851 33.21 50.1951 33.21C49.5051 33.21 48.8901 33.075 48.3501 32.805C47.8101 32.535 47.3851 32.1 47.0751 31.5C46.7651 30.9 46.6101 30.11 46.6101 29.13C46.6101 28.15 46.7651 27.36 47.0751 26.76C47.3851 26.16 47.8101 25.725 48.3501 25.455C48.8901 25.175 49.5051 25.035 50.1951 25.035ZM50.1951 25.335C49.7251 25.335 49.3401 25.635 49.0401 26.235C48.7501 26.825 48.6051 27.79 48.6051 29.13C48.6051 30.47 48.7501 31.435 49.0401 32.025C49.3401 32.615 49.7251 32.91 50.1951 32.91C50.6551 32.91 51.0351 32.615 51.3351 32.025C51.6351 31.435 51.7851 30.47 51.7851 29.13C51.7851 27.79 51.6351 26.825 51.3351 26.235C51.0351 25.635 50.6551 25.335 50.1951 25.335ZM59.684 25.035C60.464 25.035 61.114 25.365 61.634 26.025C62.164 26.675 62.429 27.665 62.429 28.995C62.429 29.985 62.274 30.795 61.964 31.425C61.654 32.045 61.239 32.5 60.719 32.79C60.199 33.07 59.634 33.21 59.024 33.21C58.594 33.21 58.179 33.12 57.779 32.94C57.389 32.75 57.074 32.455 56.834 32.055H57.089C57.289 32.335 57.529 32.545 57.809 32.685C58.099 32.815 58.389 32.88 58.679 32.88C59.269 32.88 59.709 32.575 59.999 31.965C60.289 31.345 60.434 30.4 60.434 29.13C60.434 28.29 60.374 27.615 60.254 27.105C60.144 26.585 59.979 26.21 59.759 25.98C59.539 25.74 59.264 25.62 58.934 25.62C58.544 25.62 58.184 25.785 57.854 26.115C57.534 26.445 57.349 26.915 57.299 27.525L57.194 27.105C57.354 26.445 57.654 25.935 58.094 25.575C58.544 25.215 59.074 25.035 59.684 25.035ZM57.359 21.255V32.55C57.149 32.56 56.934 32.6 56.714 32.67C56.494 32.73 56.289 32.81 56.099 32.91C55.909 33 55.744 33.11 55.604 33.24L55.364 33.12C55.414 32.98 55.444 32.84 55.454 32.7C55.464 32.56 55.469 32.415 55.469 32.265V23.055C55.469 22.605 55.394 22.275 55.244 22.065C55.104 21.845 54.839 21.735 54.449 21.735V21.42C54.769 21.45 55.079 21.465 55.379 21.465C55.759 21.465 56.114 21.45 56.444 21.42C56.774 21.38 57.079 21.325 57.359 21.255Z" fill="#001144"/>
<path d="M11 29L11 22" stroke="#001144" stroke-linecap="round"/>
<path d="M11 28.5C10.7239 28.5 10.5 28.7239 10.5 29C10.5 29.2761 10.7239 29.5 11 29.5V28.5ZM36.3536 29.3536C36.5488 29.1583 36.5488 28.8417 36.3536 28.6464L33.1716 25.4645C32.9763 25.2692 32.6597 25.2692 32.4645 25.4645C32.2692 25.6597 32.2692 25.9763 32.4645 26.1716L35.2929 29L32.4645 31.8284C32.2692 32.0237 32.2692 32.3403 32.4645 32.5355C32.6597 32.7308 32.9763 32.7308 33.1716 32.5355L36.3536 29.3536ZM11 29.5H36V28.5H11V29.5Z" fill="white"/>
</svg>
